<?xml version="1.0" standalone="no"?>
<!DOCTYPE svg PUBLIC "-//W3C//DTD SVG 20010904//EN"
 "http://www.w3.org/TR/2001/REC-SVG-20010904/DTD/svg10.dtd">
<svg version="1.0" xmlns="http://www.w3.org/2000/svg"
 width="500.000000pt" height="500.000000pt" viewBox="0 0 500.000000 500.000000"
 preserveAspectRatio="xMidYMid meet">

<g transform="translate(0.000000,500.000000) scale(0.100000,-0.100000)"
fill="#4942E4" stroke="none">
<path d="M2190 4415 c-330 -36 -618 -132 -880 -293 -87 -54 -170 -112 -170
-119 0 -3 21 10 48 29 166 119 428 239 641 293 190 48 283 59 511 59 229 1
326 -11 495 -59 246 -70 545 -225 744 -386 99 -80 242 -219 206 -201 -11 6
-31 22 -45 37 -37 40 -173 144 -271 209 -214 138 -524 260 -794 312 -171 32
-470 44 -618 24 -255 -33 -482 -122 -718 -281 -97 -65 -123 -91 -34 -34 298
190 684 286 1032 256 324 -28 620 -110 873 -242 431 -226 707 -525 911 -991
18 -42 35 -75 38 -73 2 3 9 28 16 57 l12 53 16 -50 c73 -220 96 -597 52 -844
-40 -228 -140 -489 -259 -676 -46 -72 -48 -75 -42 -75 11 0 129 184 181 283
180 340 241 725 174 1102 -97 552 -402 1023 -834 1288 -298 182 -649 299 -980
327 -143 12 -157 11 -305 -5z"/>
<path d="M2207 3866 c-75 -113 -137 -209 -137 -214 0 -5 210 -150 466 -322
321 -215 471 -322 485 -343 28 -48 34 -110 15 -162 -20 -52 -91 -120 -136
-130 l-32 -7 84 -87 c91 -91 152 -169 187 -239 24 -47 27 -48 102 -26 329 97
480 471 326 809 -34 74 -98 161 -158 213 -40 35 -1045 712 -1057 712 -4 0 -69
-92 -145 -204z"/>
<path d="M1109 3983 c-13 -16 -12 -17 4 -4 9 7 17 15 17 17 0 8 -8 3 -21 -13z"/>
<path d="M1069 3953 c-13 -16 -12 -17 4 -4 9 7 17 15 17 17 0 8 -8 3 -21 -13z"/>
<path d="M1219 3953 c-13 -16 -12 -17 4 -4 9 7 17 15 17 17 0 8 -8 3 -21 -13z"/>
<path d="M862 3592 c-293 -384 -430 -792 -416 -1232 3 -84 3 -84 -11 -43 -17
54 -35 199 -35 288 0 232 89 570 212 805 59 114 48 108 -17 -9 -135 -245 -217
-563 -218 -846 0 -179 24 -289 153 -705 69 -219 207 -471 353 -641 272 -317
789 -581 1217 -620 286 -26 798 49 1040 152 109 46 346 193 382 236 7 9 -30
-12 -82 -47 -142 -93 -258 -145 -410 -185 -261 -68 -493 -99 -745 -99 -182 0
-195 2 -307 32 -278 75 -570 208 -758 346 -138 102 -300 269 -390 402 -28 43
-19 36 71 -52 126 -122 208 -191 337 -282 286 -204 567 -342 794 -392 50 -11
60 -11 82 4 43 28 32 41 -49 53 -105 17 -238 64 -391 137 -155 75 -441 243
-535 314 -164 125 -350 330 -453 502 -137 226 -193 503 -174 854 22 402 133
718 365 1034 71 96 59 92 -15 -6z"/>
<path d="M1749 3157 c-156 -232 -404 -601 -551 -819 l-267 -397 230 -156 c127
-86 236 -158 243 -161 6 -2 143 193 304 434 162 240 408 607 548 815 140 208
254 380 254 383 0 2 -107 75 -239 163 l-238 159 -284 -421z"/>
<path d="M2250 2725 c-72 -108 -133 -202 -136 -210 -4 -9 65 -60 208 -156 237
-157 261 -177 291 -234 30 -58 29 -162 -2 -232 -32 -72 -103 -136 -175 -159
-99 -31 -128 -20 -400 162 -130 86 -238 155 -239 153 -19 -23 -300 -444 -303
-454 -4 -9 71 -65 213 -161 367 -248 443 -279 673 -278 106 1 152 5 214 22
230 63 416 216 515 425 50 106 71 192 71 299 0 296 -150 565 -435 778 -96 71
-327 227 -350 236 -9 4 -56 -57 -145 -191z"/>
<path d="M4161 2905 c0 -5 6 -21 14 -35 8 -14 14 -20 14 -15 0 6 -6 21 -14 35
-8 14 -14 21 -14 15z"/>
<path d="M3929 1393 c-13 -16 -12 -17 4 -4 16 13 21 21 13 21 -2 0 -10 -8 -17
-17z"/>
<path d="M3899 1353 c-13 -16 -12 -17 4 -4 16 13 21 21 13 21 -2 0 -10 -8 -17
-17z"/>
<path d="M3549 1003 c-13 -16 -12 -17 4 -4 16 13 21 21 13 21 -2 0 -10 -8 -17
-17z"/>
</g>
</svg>
